<svg id="Layer_1" data-name="Layer 1" xmlns="http://www.w3.org/2000/svg" viewBox="0 0 45 45" width="1em" height="1em">
  <path fill="currentColor"
    d="M15.5,14A1.5,1.5,0,1,1,14,12.5,1.5,1.5,0,0,1,15.5,14ZM20,12a2,2,0,1,0,2,2A2,2,0,0,0,20,12Zm-6,6a2,2,0,1,0,2,2A2,2,0,0,0,14,18Zm6-.5A2.5,2.5,0,1,0,22.5,20,2.5,2.5,0,0,0,20,17.5ZM8,13a1,1,0,1,0,1,1A1,1,0,0,0,8,13ZM2,18a2,2,0,1,0,2,2A2,2,0,0,0,2,18Zm6,.5A1.5,1.5,0,1,0,9.5,20,1.5,1.5,0,0,0,8,18.5ZM20,0a2,2,0,1,0,2,2A2,2,0,0,0,20,0ZM14,7a1,1,0,1,0,1,1A1,1,0,0,0,14,7Zm6-.5A1.5,1.5,0,1,0,21.5,8,1.5,1.5,0,0,0,20,6.5ZM8,5.5A2.5,2.5,0,1,0,10.5,8,2.5,2.5,0,0,0,8,5.5ZM38,18a2,2,0,1,0,2,2A2,2,0,0,0,38,18ZM26,12.5A1.5,1.5,0,1,0,27.5,14,1.5,1.5,0,0,0,26,12.5Zm6,.5a1,1,0,1,0,1,1A1,1,0,0,0,32,13Zm-6,5a2,2,0,1,0,2,2A2,2,0,0,0,26,18Zm6,.5A1.5,1.5,0,1,0,33.5,20,1.5,1.5,0,0,0,32,18.5ZM26,7a1,1,0,1,0,1,1A1,1,0,0,0,26,7Zm6-1.5A2.5,2.5,0,1,0,34.5,8,2.5,2.5,0,0,0,32,5.5ZM20,36a2,2,0,1,0,2,2A2,2,0,0,0,20,36ZM14,24.5A1.5,1.5,0,1,0,15.5,26,1.5,1.5,0,0,0,14,24.5Zm6-.5a2,2,0,1,0,2,2A2,2,0,0,0,20,24Zm-6,7a1,1,0,1,0,1,1A1,1,0,0,0,14,31Zm6-.5A1.5,1.5,0,1,0,21.5,32,1.5,1.5,0,0,0,20,30.5ZM8,25a1,1,0,1,0,1,1A1,1,0,0,0,8,25Zm0,4.5A2.5,2.5,0,1,0,10.5,32,2.5,2.5,0,0,0,8,29.5Zm18-5A1.5,1.5,0,1,0,27.5,26,1.5,1.5,0,0,0,26,24.5Zm6,.5a1,1,0,1,0,1,1A1,1,0,0,0,32,25Zm-6,6a1,1,0,1,0,1,1A1,1,0,0,0,26,31Zm6-1.5A2.5,2.5,0,1,0,34.5,32,2.5,2.5,0,0,0,32,29.5Zm25.68-7A3.86,3.86,0,0,0,59,21.7a4,4,0,0,0,.92-1.18" />
</svg>