<svg xmlns="http://www.w3.org/2000/svg" xmlns:xlink="http://www.w3.org/1999/xlink" width="1em" height="1em"
  viewBox="0 0 45 45" version="1.1">
  <g stroke="none" stroke-width="1" fill="currentColor" fill-rule="evenodd">
    <path
      d="M32.0833333,30 C33.2339266,30 34.1666667,30.9327401 34.1666667,32.0833333 C34.1666667,33.2339266 33.2339266,34.1666667 32.0833333,34.1666667 C30.9327401,34.1666667 30,33.2339266 30,32.0833333 C30,30.9327401 30.9327401,30 32.0833333,30 Z M12.9166667,30 C14.0672599,30 15,30.9327401 15,32.0833333 C15,33.2339266 14.0672599,34.1666667 12.9166667,34.1666667 C11.7660734,34.1666667 10.8333333,33.2339266 10.8333333,32.0833333 C10.8333333,30.9327401 11.7660734,30 12.9166667,30 Z M22.0833333,14.1666667 C26.9158249,14.1666667 30.8333333,18.0841751 30.8333333,22.9166667 C30.8333333,27.7491582 26.9158249,31.6666667 22.0833333,31.6666667 C17.2508418,31.6666667 13.3333333,27.7491582 13.3333333,22.9166667 C13.3333333,18.0841751 17.2508418,14.1666667 22.0833333,14.1666667 Z M32.0833333,10.8333333 C33.2339266,10.8333333 34.1666667,11.7660734 34.1666667,12.9166667 C34.1666667,14.0672599 33.2339266,15 32.0833333,15 C30.9327401,15 30,14.0672599 30,12.9166667 C30,11.7660734 30.9327401,10.8333333 32.0833333,10.8333333 Z M12.9166667,10.8333333 C14.0672599,10.8333333 15,11.7660734 15,12.9166667 C15,14.0672599 14.0672599,15 12.9166667,15 C11.7660734,15 10.8333333,14.0672599 10.8333333,12.9166667 C10.8333333,11.7660734 11.7660734,10.8333333 12.9166667,10.8333333 Z M22.5,10 C23.4204746,10 24.1666667,9.25380792 24.1666667,8.33333333 C24.1666667,7.41285875 23.4204746,6.66666667 22.5,6.66666667 C21.5795254,6.66666667 20.8333333,7.41285875 20.8333333,8.33333333 C20.8333333,9.25380792 21.5795254,10 22.5,10 Z M22.5,38.3333333 C23.4204746,38.3333333 24.1666667,37.5871412 24.1666667,36.6666667 C24.1666667,35.7461921 23.4204746,35 22.5,35 C21.5795254,35 20.8333333,35.7461921 20.8333333,36.6666667 C20.8333333,37.5871412 21.5795254,38.3333333 22.5,38.3333333 Z M37.5,39.1666667 C38.4204746,39.1666667 39.1666667,38.4204746 39.1666667,37.5 C39.1666667,36.5795254 38.4204746,35.8333333 37.5,35.8333333 C36.5795254,35.8333333 35.8333333,36.5795254 35.8333333,37.5 C35.8333333,38.4204746 36.5795254,39.1666667 37.5,39.1666667 Z M22.5,45 C22.9602373,45 23.3333333,44.626904 23.3333333,44.1666667 C23.3333333,43.7064294 22.9602373,43.3333333 22.5,43.3333333 C22.0397627,43.3333333 21.6666667,43.7064294 21.6666667,44.1666667 C21.6666667,44.626904 22.0397627,45 22.5,45 Z M38.3333333,22.5 C38.3333333,21.5795254 37.5871412,20.8333333 36.6666667,20.8333333 C35.7461921,20.8333333 35,21.5795254 35,22.5 C35,23.4204746 35.7461921,24.1666667 36.6666667,24.1666667 C37.5871412,24.1666667 38.3333333,23.4204746 38.3333333,22.5 Z M39.1666667,7.5 C39.1666667,6.57952542 38.4204746,5.83333333 37.5,5.83333333 C36.5795254,5.83333333 35.8333333,6.57952542 35.8333333,7.5 C35.8333333,8.42047458 36.5795254,9.16666667 37.5,9.16666667 C38.4204746,9.16666667 39.1666667,8.42047458 39.1666667,7.5 Z M45,22.5 C45,22.0397627 44.626904,21.6666667 44.1666667,21.6666667 C43.7064294,21.6666667 43.3333333,22.0397627 43.3333333,22.5 C43.3333333,22.9602373 43.7064294,23.3333333 44.1666667,23.3333333 C44.626904,23.3333333 45,22.9602373 45,22.5 Z M6.66666667,22.5 C6.66666667,21.5795254 7.41285875,20.8333333 8.33333333,20.8333333 C9.25380792,20.8333333 10,21.5795254 10,22.5 C10,23.4204746 9.25380792,24.1666667 8.33333333,24.1666667 C7.41285875,24.1666667 6.66666667,23.4204746 6.66666667,22.5 Z M5,7.5 C5,6.57952542 5.74619208,5.83333333 6.66666667,5.83333333 C7.58714125,5.83333333 8.33333333,6.57952542 8.33333333,7.5 C8.33333333,8.42047458 7.58714125,9.16666667 6.66666667,9.16666667 C5.74619208,9.16666667 5,8.42047458 5,7.5 Z M-6.66133815e-16,22.5 C-6.66133815e-16,22.0397627 0.373096042,21.6666667 0.833333333,21.6666667 C1.29357062,21.6666667 1.66666667,22.0397627 1.66666667,22.5 C1.66666667,22.9602373 1.29357062,23.3333333 0.833333333,23.3333333 C0.373096042,23.3333333 -6.66133815e-16,22.9602373 -6.66133815e-16,22.5 Z M5,37.5 C5,38.4204746 5.74619208,39.1666667 6.66666667,39.1666667 C7.58714125,39.1666667 8.33333333,38.4204746 8.33333333,37.5 C8.33333333,36.5795254 7.58714125,35.8333333 6.66666667,35.8333333 C5.74619208,35.8333333 5,36.5795254 5,37.5 Z M22.5,1.66666667 C22.9602373,1.66666667 23.3333333,1.29357062 23.3333333,0.833333333 C23.3333333,0.373096042 22.9602373,0 22.5,0 C22.0397627,0 21.6666667,0.373096042 21.6666667,0.833333333 C21.6666667,1.29357062 22.0397627,1.66666667 22.5,1.66666667 Z"
      id="Combined-Shape" />
  </g>
</svg>